<?xml version="1.0" encoding="UTF-8" standalone="no"?><!-- Generator: Gravit.io --><svg xmlns="http://www.w3.org/2000/svg" xmlns:xlink="http://www.w3.org/1999/xlink" style="isolation:isolate" viewBox="-1040 -1015.019 1110.752 1295.019" width="1110.752pt" height="1295.019pt"><defs><clipPath id="_clipPath_dAM4IFf4FrOJqzbnVlo495hPebYK3Zsr"><rect x="-1040" y="-1015.019" width="1110.752" height="1295.019"/></clipPath></defs><g clip-path="url(#_clipPath_dAM4IFf4FrOJqzbnVlo495hPebYK3Zsr)"><linearGradient id="_lgradient_0" x1="0.504208529454757" y1="1.547779784250094" x2="0.5000000000000001" y2="4.440892098500626e-16" gradientTransform="matrix(1110.752,0,0,1295.019,-1040,-1015.019)" gradientUnits="userSpaceOnUse"><stop offset="0%" stop-opacity="1" style="stop-color:rgb(224,103,212)"/><stop offset="100%" stop-opacity="1" style="stop-color:rgb(152,103,224)"/></linearGradient><path d=" M -428.689 280 L -266.643 113.039 L -86.374 -72.698 L -86.379 -72.703 C 10.848 -172.749 70.752 -309.255 70.752 -459.643 C 70.752 -766.163 -178.104 -1015.019 -484.624 -1015.019 C -791.144 -1015.019 -1040 -766.163 -1040 -459.643 C -1040 -166.381 -812.207 74.097 -524.061 94.352 L -522.748 -205.29 L -522.748 -347.216 L -721.836 -159.835 Q -766.432 -269.483 -688.873 -388.922 L -865.318 -392.838 Q -826.539 -535.772 -624.888 -539.688 L -747.042 -666.958 Q -615.193 -741.363 -477.528 -598.428 Q -370.885 -731.572 -206.074 -674.79 L -339.862 -535.772 Q -163.417 -545.562 -93.615 -394.796 L -270.059 -392.838 Q -192.501 -275.357 -237.097 -144.171 L -428.689 -339.523 L -428.689 280 Z " fill-rule="evenodd" fill="url(#_lgradient_0)"/></g></svg>